<svg width="41" height="40" viewBox="0 0 41 40" fill="none" xmlns="http://www.w3.org/2000/svg">
<rect x="0.549805" width="39.7251" height="39.7251" rx="7.44846" fill="white"/>
<path d="M15.3523 12.8626C15.352 13.393 15.1411 13.9016 14.7658 14.2765C14.3905 14.6514 13.8817 14.8618 13.3513 14.8616C12.8209 14.8613 12.3123 14.6503 11.9374 14.2751C11.5625 13.8998 11.352 13.391 11.3523 12.8606C11.3526 12.3301 11.5635 11.8215 11.9388 11.4467C12.314 11.0718 12.8229 10.8613 13.3533 10.8616C13.8837 10.8618 14.3923 11.0728 14.7672 11.4481C15.1421 11.8233 15.3526 12.3321 15.3523 12.8626ZM15.4123 16.3426H11.4123V28.8626H15.4123V16.3426ZM21.7323 16.3426H17.7523V28.8626H21.6923V22.2926C21.6923 18.6326 26.4623 18.2926 26.4623 22.2926V28.8626H30.4123V20.9326C30.4123 14.7626 23.3523 14.9926 21.6923 18.0226L21.7323 16.3426Z" fill="black"/>
</svg>
