<svg width="41" height="40" viewBox="0 0 41 40" fill="none" xmlns="http://www.w3.org/2000/svg">
<rect x="0.824707" width="39.7251" height="39.7251" rx="7.44846" fill="white"/>
<path d="M31.1473 13.8625C30.3773 14.2125 29.5473 14.4425 28.6873 14.5525C29.5673 14.0225 30.2473 13.1825 30.5673 12.1725C29.7373 12.6725 28.8173 13.0225 27.8473 13.2225C27.0573 12.3625 25.9473 11.8625 24.6873 11.8625C22.3373 11.8625 20.4173 13.7825 20.4173 16.1525C20.4173 16.4925 20.4573 16.8225 20.5273 17.1325C16.9673 16.9525 13.7973 15.2425 11.6873 12.6525C11.3173 13.2825 11.1073 14.0225 11.1073 14.8025C11.1073 16.2925 11.8573 17.6125 13.0173 18.3625C12.3073 18.3625 11.6473 18.1625 11.0673 17.8625V17.8925C11.0673 19.9725 12.5473 21.7125 14.5073 22.1025C13.878 22.2748 13.2174 22.2987 12.5773 22.1725C12.8489 23.025 13.3808 23.771 14.0983 24.3055C14.8158 24.84 15.6827 25.1362 16.5773 25.1525C15.0609 26.353 13.1813 27.0019 11.2473 26.9925C10.9073 26.9925 10.5673 26.9725 10.2273 26.9325C12.1273 28.1525 14.3873 28.8625 16.8073 28.8625C24.6873 28.8625 29.0173 22.3225 29.0173 16.6525C29.0173 16.4625 29.0173 16.2825 29.0073 16.0925C29.8473 15.4925 30.5673 14.7325 31.1473 13.8625Z" fill="black"/>
</svg>
